/vscmnt/brussel_pixiu_data/_data_brussel/112/vsc11236/PredSimResults/SUBJ06opt3D/weighted-LRposFixed/expIG/worker_04.mot
version=1
nRows=5
nColumns=50
inDegrees=yes
endheader
                time	         pelvis_tilt	         pelvis_list	     pelvis_rotation	           pelvis_tx	           pelvis_ty	           pelvis_tz	       hip_flexion_r	     hip_adduction_r	      hip_rotation_r	        knee_angle_r	       ankle_angle_r	         mtp_angle_r	       hip_flexion_l	     hip_adduction_l	      hip_rotation_l	        knee_angle_l	       ankle_angle_l	         mtp_angle_l	    lumbar_extension	      lumbar_bending	     lumbar_rotation	 ercspn_r/activation	 intobl_r/activation	 extobl_r/activation	    abd_r/activation	    add_r/activation	hamstrings_r/activation	bifemsh_r/activation	glut_max_r/activation	iliopsoas_r/activation	rect_fem_r/activation	  vasti_r/activation	gastroc_r/activation	 soleus_r/activation	tib_ant_r/activation	 ercspn_l/activation	 intobl_l/activation	 extobl_l/activation	    abd_l/activation	    add_l/activation	hamstrings_l/activation	bifemsh_l/activation	glut_max_l/activation	iliopsoas_l/activation	rect_fem_l/activation	  vasti_l/activation	gastroc_l/activation	 soleus_l/activation	tib_ant_l/activation	
          0.61768816	         -6.75071613	          0.72980410	         -3.75100129	          0.68563386	          0.92824352	          0.01062550	         -8.92835274	         -0.09087270	         -5.38042550	        -10.78886050	          9.80852517	         32.40364756	         32.84363294	         -0.97677401	         -5.78248912	         -7.27641654	          0.29018948	          0.22659608	         -5.12404974	          0.53995669	          8.13242792	          0.11739420	          0.00999999	          0.00999999	          0.09607249	          0.00999999	          0.00999999	          0.29347863	          0.01612387	          0.69093007	          0.01267859	          0.00999999	          0.25859879	          0.41688456	          0.02550051	          0.19462109	          0.14894237	          0.00999999	          0.00999999	          0.29477172	          0.07578867	          0.12487109	          0.01217759	          0.12529646	          0.01342734	          0.00999999	          0.00999999	          0.00999999	          0.51782526	
          0.63004192	         -6.86055615	          0.66090126	         -3.77349396	          0.70226946	          0.92625680	          0.00968844	         -9.33330791	         -0.17923326	         -5.76925940	        -11.68018590	          8.94103884	         34.31846077	         33.18427677	         -0.82488216	         -5.62078496	         -9.28832590	         -0.00417248	          0.22189138	         -4.78895830	          0.19683691	          8.66766085	          0.16957090	          0.00999999	          0.00999999	          0.07966896	          0.00999999	          0.00999999	          0.26288849	          0.01454184	          0.71436054	          0.01205895	          0.00999999	          0.23549589	          0.39724409	          0.02114653	          0.17725375	          0.12351178	          0.00999999	          0.00999999	          0.42279060	          0.07793137	          0.10355046	          0.07983759	          0.10390320	          0.01113474	          0.00999999	          0.01454184	          0.01753595	          0.52431897	
          0.64239569	         -6.94369693	          0.64332748	         -3.78581875	          0.71942357	          0.92451264	          0.00872264	         -9.61378631	         -0.35216943	         -6.14528513	        -12.87996786	          7.92763199	         36.31249744	         33.30455679	         -0.70802370	         -5.26328825	        -11.24250015	         -0.21769812	          0.19357398	         -4.42022450	         -0.21148291	          9.15930325	          0.16581333	          0.00999999	          0.00999999	          0.06606619	          0.00999999	          0.01334639	          0.23692092	          0.01205895	          0.69122654	          0.00999999	          0.00999999	          0.19528706	          0.36914317	          0.01753595	          0.14698925	          0.10242324	          0.00999999	          0.01679222	          0.35060285	          0.08296881	          0.08587014	          0.11210469	          0.08616265	          0.00999999	          0.00999999	          0.01205895	          0.01454184	          0.56371818	
          0.65474945	         -7.00366825	          0.66928262	         -3.77826819	          0.73687916	          0.92307989	          0.00762556	         -9.69927563	         -0.61132055	         -6.52263648	        -14.47818699	          6.74022316	         38.38079259	         33.24826122	         -0.57029576	         -5.05088165	        -12.94604123	         -0.51946714	          0.17912453	         -4.04330583	         -0.66071659	          9.59804093	          0.16924341	          0.00999999	          0.00999999	          0.05478598	          0.00999999	          0.01106761	          0.21284626	          0.00999999	          0.64919452	          0.00999999	          0.00999999	          0.16194353	          0.34086902	          0.01454184	          0.15236887	          0.08493538	          0.00999999	          0.05346977	          0.33064951	          0.08342026	          0.07120857	          0.14568582	          0.07145114	          0.00999999	          0.02229410	          0.00999999	          0.01205895	          0.60149334	
          0.66710321	         -7.04128336	          0.71965805	         -3.74901171	          0.75442090	          0.92203858	          0.00640347	         -9.54006621	         -0.94099649	         -6.91123802	        -16.52537917	          5.32248497	         40.50463560	         33.09328718	         -0.42420190	         -5.00831005	        -14.51272796	         -0.82283601	          0.15226634	         -3.68379308	         -1.12877463	          9.97747754	          0.19907994	          0.00999999	          0.00999999	          0.04543176	          0.00999999	          0.00999999	          0.18838443	          0.00999999	          0.55240804	          0.00999999	          0.00999999	          0.13429310	          0.28565050	          0.01205895	          0.15246506	          0.07043342	          0.00999999	          0.10458340	          0.31136647	          0.08187299	          0.05905034	          0.16011526	          0.05925149	          0.00999999	          0.08981977	          0.00999999	          0.00999999	          0.64894615	
